# xmcd CD database file
#
# Track frame offsets:
#	150
#	46117
#	94852
#	127262
#	175657
#	207960
#	254335
#	278682
#
# Disc length: 4502 seconds
#
# Revision: 1
# Processed by: cddbd v1.5.2PL0 Copyright (c) Steve Scherf et al.
# Submitted via: CDex 1.51
#
DISCID=6d119408
DTITLE=Dusko Gojkovic/Gianni Basso Quintett - live at Birdland
DYEAR=1995
DGENRE=Jazz
TTITLE0=Medium Rare
TTITLE1=Moon Over Asti
TTITLE2=In The Sign Of Lybra
TTITLE3=Snap Shot
TTITLE4=Old SOng
TTITLE5=The Man I Love
TTITLE6=Everything Happens To Me
TTITLE7=Zoot
EXTD=YEAR: 1995
EXTT0=
EXTT1=
EXTT2=
EXTT3=
EXTT4=
EXTT5=
EXTT6=
EXTT7=
PLAYORDER=
